<?xml version="1.0" standalone="no"?>
<!DOCTYPE svg PUBLIC "-//W3C//DTD SVG 20010904//EN"
 "http://www.w3.org/TR/2001/REC-SVG-20010904/DTD/svg10.dtd">
<svg version="1.0" xmlns="http://www.w3.org/2000/svg"
 width="100.000000pt" height="100.000000pt" viewBox="0 0 100.000000 100.000000"
 preserveAspectRatio="xMidYMid meet">

<g transform="translate(0.000000,100.000000) scale(0.100000,-0.100000)"
fill="#ffff" stroke="none">
<path d="M874 823 c-4 -14 -21 -23 -67 -32 -113 -23 -179 -65 -340 -218 -114
-108 -141 -117 -175 -59 -21 36 -54 48 -109 39 -48 -8 -53 18 -14 72 38 53 40
94 6 132 -18 21 -24 24 -25 12 0 -9 7 -22 15 -29 24 -20 18 -58 -16 -105 -19
-26 -29 -52 -27 -66 2 -17 -5 -30 -26 -44 -59 -40 -71 -183 -23 -276 30 -58
65 -81 130 -87 107 -9 187 49 297 213 158 237 305 364 408 352 55 -6 62 8 30
65 -26 47 -56 61 -64 31z m56 -57 c0 -6 -7 -1 -15 10 -8 10 -15 23 -15 28 0 6
7 1 15 -10 8 -10 15 -23 15 -28z m-35 4 c3 -5 -7 -12 -22 -16 -95 -21 -145
-53 -241 -155 l-57 -61 -28 30 -29 30 66 54 c36 30 86 64 112 77 82 41 186 63
199 41z m-356 -224 c33 -35 17 -49 -19 -18 -17 15 -30 30 -30 34 0 16 27 7 49
-16z m-36 -31 c15 -14 27 -28 27 -31 0 -12 -155 -211 -184 -236 -114 -100
-244 -60 -270 83 l-6 36 66 6 c44 3 72 11 83 22 15 17 14 17 -9 11 -46 -12
-109 -19 -123 -13 -9 3 -12 15 -10 34 5 27 6 28 66 29 38 0 75 7 94 17 30 16
34 16 66 -3 41 -25 64 -18 122 34 22 19 42 35 45 36 3 0 18 -11 33 -25z m-243
6 c0 -27 -107 -59 -156 -47 l-29 8 24 19 c13 10 30 19 39 19 13 0 12 -3 -4
-14 -17 -13 -17 -15 -3 -21 20 -8 99 12 99 25 0 5 -12 11 -27 13 -20 3 -15 4
15 6 23 0 42 -3 42 -8z"/>
<path d="M190 815 c0 -3 10 -19 22 -35 16 -22 21 -42 19 -77 -1 -35 2 -44 10
-36 20 20 16 89 -7 119 -19 26 -44 43 -44 29z"/>
<path d="M80 770 c0 -39 26 -80 50 -80 16 0 12 14 -10 33 -13 11 -20 29 -20
52 0 19 -4 35 -10 35 -5 0 -10 -18 -10 -40z"/>
</g>
</svg>
